<?xml version="1.0" standalone="no"?><!DOCTYPE svg PUBLIC "-//W3C//DTD SVG 1.1//EN" "http://www.w3.org/Graphics/SVG/1.1/DTD/svg11.dtd"><svg t="1558925166579" class="icon" style="" viewBox="0 0 1024 1024" version="1.1" xmlns="http://www.w3.org/2000/svg" p-id="12624" xmlns:xlink="http://www.w3.org/1999/xlink" width="18" height="18"><defs><style type="text/css"></style></defs><path d="M857.310253 538.929427v-449.960053c0-49.086551-39.882823-88.969374-88.969374-88.969374H412.122503l-66.81225 0.681758-289.406125 288.724367v645.624501c0 49.086551 39.882823 88.969374 88.969374 88.969374h623.467377c49.086551 0 88.969374-39.882823 88.969374-88.969374v-39.882823h-66.81225v17.725699c0 24.543276-19.770972 44.655126-44.655127 44.655126H167.030626c-24.543276 0-44.655126-19.770972-44.655127-44.655126V356.218375h200.436751c49.086551 0 88.969374-39.882823 88.969375-88.969374V66.81225h334.061251c24.543276 0 44.655126 19.770972 44.655127 44.655127v427.802929h66.81225zM353.491345 241.683089c0 26.24767-21.475366 47.723036-47.723036 47.723036h-146.577896l194.300932-194.300932v146.577896z" fill="#060001" p-id="12625"></path><path d="M484.388815 842.652463l-17.38482-43.63249h-85.901465l-16.362184 43.63249H306.450067l93.05992-221.912117h52.15446l92.037284 221.912117h-59.312916z m-59.653795-162.94008l-28.292943 76.356858h55.904128l-27.611185-76.356858zM730.844208 688.916112c0 12.953395-2.386152 23.861518-7.158456 32.724367-4.772304 8.86285-11.249001 16.021305-19.430093 21.475367-8.181092 5.454061-17.725699 9.544607-28.292943 11.930759-10.567244 2.386152-21.816245 3.749667-33.406125 3.749667h-26.588548v83.856191h-53.517976v-221.912117h81.47004c12.271638 0 23.520639 1.363515 34.087882 3.749667 10.567244 2.386152 19.770972 6.135819 27.611185 11.58988 7.840213 5.454061 13.976032 12.271638 18.407457 21.134488 4.431425 8.181092 6.817577 19.089214 6.817577 31.701731z m-53.517976 0.340879c0-5.113182-1.022636-9.544607-3.06791-12.953396-2.045273-3.408788-4.772304-5.79494-8.52197-7.840213-3.408788-2.045273-7.499334-3.067909-11.930759-3.749667-4.431425-0.681758-9.203728-1.022636-13.976032-1.022636h-23.52064v52.495339h22.498003c5.113182 0 9.885486-0.340879 14.316911-1.363515 4.431425-0.681758 8.86285-2.386152 12.271638-4.431425 3.749667-2.045273 6.476698-4.772304 8.52197-8.181092 2.045273-3.408788 3.408788-7.840213 3.408789-12.953395zM898.556591 842.652463l-82.492676-102.263648h-0.681758v102.263648h-52.495339v-221.912117H815.382157v90.33289h1.022637l79.424767-90.33289h67.153129l-95.786951 102.263649 101.241012 119.648468h-69.88016z" fill="" p-id="12626"></path></svg>