<?xml version="1.0" standalone="no"?><!DOCTYPE svg PUBLIC "-//W3C//DTD SVG 1.1//EN" "http://www.w3.org/Graphics/SVG/1.1/DTD/svg11.dtd"><svg t="1559201833211" class="icon" style="" viewBox="0 0 1024 1024" version="1.1" xmlns="http://www.w3.org/2000/svg" p-id="5002" xmlns:xlink="http://www.w3.org/1999/xlink" width="15" height="15"><defs><style type="text/css"></style></defs><path d="M 677.322 232.163 L 174.239 232.163 c -61.7391 0 -111.796 50.0571 -111.796 111.796 l 0 503.083 c 0 61.7391 50.0571 111.796 111.796 111.796 l 503.083 0 c 61.7391 0 111.796 -50.0571 111.796 -111.796 L 789.118 343.959 C 789.118 282.22 739.061 232.163 677.322 232.163 Z M 733.22 847.042 c 0 30.8424 -25.0557 55.8981 -55.8981 55.8981 L 174.239 902.94 c -30.8148 0 -55.8981 -25.0557 -55.8981 -55.8981 L 118.341 343.959 c 0 -30.8424 25.0833 -55.8981 55.8981 -55.8981 l 503.083 0 c 30.8424 0 55.8981 25.0557 55.8981 55.8981 L 733.22 847.042 Z M 230.137 455.755 l 391.287 0 l 0 -55.8981 L 230.137 399.857 L 230.137 455.755 Z M 230.137 567.55 l 391.287 0 l 0 -55.8981 L 230.137 511.652 L 230.137 567.55 Z M 230.137 679.347 l 391.287 0 l 0 -55.8981 L 230.137 623.449 L 230.137 679.347 Z M 230.137 791.144 l 223.592 0 l 0 -55.8981 l -223.592 0 L 230.137 791.144 Z M 845.016 64.4683 L 341.933 64.4683 c -61.7391 0 -111.796 50.0571 -111.796 111.796 l 55.8981 0 c 0 -30.8424 25.0833 -55.8981 55.8981 -55.8981 l 503.083 0 c 30.8424 0 55.8981 25.0557 55.8981 55.8981 l 0 503.083 c 0 30.8424 -25.0557 55.8981 -55.8981 55.8981 l 0 55.8981 c 61.7391 0 111.796 -50.0571 111.796 -111.796 L 956.812 176.264 C 956.812 114.525 906.755 64.4683 845.016 64.4683 Z" fill="#2c2c2c" p-id="5003"></path></svg>