<?xml version="1.0" standalone="no"?><!DOCTYPE svg PUBLIC "-//W3C//DTD SVG 1.1//EN" "http://www.w3.org/Graphics/SVG/1.1/DTD/svg11.dtd"><svg t="1558929329653" class="icon" style="" viewBox="0 0 1024 1024" version="1.1" xmlns="http://www.w3.org/2000/svg" p-id="1355" xmlns:xlink="http://www.w3.org/1999/xlink" width="18" height="18"><defs><style type="text/css"></style></defs><path d="M838.208 393.664l1.088-6.112-222.912-229.504-78.816 0c-132.16 0-270.912 0-270.912 0-39.904 0-72.256 30.912-72.256 69.056l0 656.096c0 38.144 32.352 69.056 72.256 69.056l505.696 0c39.904 0 72.256-30.912 72.256-69.056L844.608 399.776 838.208 393.664zM627.872 221.28l158.112 161.248L664 382.528c-19.936 0-36.128-15.456-36.128-34.528L627.872 221.28zM808.48 883.232c0 19.072-16.16 34.528-36.128 34.528L266.656 917.76c-19.968 0-36.128-15.456-36.128-34.528L230.528 227.136c0-19.072 16.16-34.528 36.128-34.528l325.088 0 0 155.392c0 38.144 32.352 69.056 72.256 69.056l144.48 0L808.48 883.232zM588.768 481.792l-69.536 114.112-1.024 0c-4.64-8.96-8.608-16.288-11.904-21.92l-53.504-92.192-58.944 0 92.8 140.256-97.216 135.296 58.176 0 55.584-87.712c8.448-13.28 12.768-20.416 12.928-21.408l1.024 0c5.344 9.632 9.472 16.768 12.416 21.408l54.56 87.712 58.944 0-94.368-136.768 95.648-138.784L588.768 481.792z" p-id="1356"></path></svg>