<?xml version="1.0" standalone="no"?><!DOCTYPE svg PUBLIC "-//W3C//DTD SVG 1.1//EN" "http://www.w3.org/Graphics/SVG/1.1/DTD/svg11.dtd"><svg t="1558929721592" class="icon" style="" viewBox="0 0 1024 1024" version="1.1" xmlns="http://www.w3.org/2000/svg" p-id="8870" xmlns:xlink="http://www.w3.org/1999/xlink" width="18" height="18"><defs><style type="text/css"></style></defs><path d="M663.871943 0.346901H112.910583c-22.605857 0-40.932248 18.326391-40.932248 40.932248v941.441702c0 22.605857 18.326391 40.932248 40.932248 40.932248h798.178834c22.605857 0 40.932248-18.326391 40.932248-40.932248V288.748357L663.871943 0.346901z m9.945513 238.938927V63.698764l216.519312 216.519312H689.167049c-8.477069 0-15.349593-6.872524-15.349593-15.349593v-25.582655z m241.365186 706.596v25.582655c0 8.477069-6.872524 15.349593-15.349593 15.349593h-775.666098c-8.477069 0-15.349593-6.872524-15.349593-15.349593V52.535517c0-8.477069 6.872524-15.349593 15.349593-15.349593h512.811482v238.938927c0 22.605857 18.326391 40.932248 40.932248 40.932248h237.271961v628.824729z" p-id="8871"></path><path d="M194.775078 479.254202v225.127363c0 22.605857 18.326391 40.932248 40.932248 40.932248h552.585348c22.605857 0 40.932248-18.326391 40.932248-40.932248v-225.127363c0-22.605857-18.326391-40.932248-40.932248-40.932248h-552.585348c-22.606881 0-40.932248 18.325367-40.932248 40.932248z m423.031713 19.986193c8.391111 0.409322 14.121626 0.613984 30.085202 0.613984h65.285912c13.916964 0 20.874423-0.409322 30.493502-1.432629v38.270629c-9.413394-1.023306-16.781198-1.431605-30.493502-1.431606h-53.210899v30.084179h44.205805c13.506619 0 18.418488-0.204661 30.698162-1.432629v37.86233c-9.618055-1.023306-16.576537-1.432629-30.698162-1.432629h-44.205805v34.383088h52.801577c15.554254 0 24.559349-0.409322 33.359782-1.432628v38.270628c-8.800433-1.023306-16.168238-1.431605-33.768081-1.431605h-64.467267c-15.554254 0-21.284769 0.204661-30.085203 0.613984 1.227967-8.18645 1.638313-15.757892 1.638314-29.879518V529.119913c-0.001023-12.688997-0.411369-19.851117-1.639337-29.879518z m-169.250752 26.809599c-6.344498-9.209756-12.484336-17.190521-20.056801-26.196639h53.006237c3.27458 7.572466 7.777127 15.758915 15.144932 27.015284l15.553231 23.740704 15.349593-23.945365c8.18645-12.893658 11.665691-19.033495 14.94027-26.810623h52.596916c-7.367805 9.209756-12.279674 15.554254-19.442818 25.787317l-38.47529 54.030567 45.229111 63.443961c6.548136 9.208732 12.279674 16.576537 20.874423 27.01426h-54.234205c-3.888564-7.367805-7.777127-14.326287-14.735609-25.173332l-22.307052-34.58775-22.102391 34.58775c-5.525853 8.594749-9.824763 15.757892-14.94027 25.173332h-54.235229c11.051707-13.507642 15.144932-18.828834 21.080108-27.01426l45.025473-63.2393-38.270629-53.825906z m-166.18288-26.809599c8.391111 0.409322 14.121626 0.613984 30.084179 0.613984h65.285912c13.916964 0 20.874423-0.409322 30.493501-1.432629v38.270629c-9.414417-1.023306-16.782222-1.431605-30.493501-1.431606h-53.211922v30.084179h44.205804c13.507642 0 18.419512-0.204661 30.699186-1.432629v37.86233c-9.618055-1.023306-16.57756-1.432629-30.699186-1.432629h-44.205804v34.383088h52.801576c15.554254 0 24.559349-0.409322 33.359782-1.432628v38.270628c-8.800433-1.023306-16.168238-1.431605-33.769104-1.431605h-64.467267c-15.554254 0-21.284769 0.204661-30.084179 0.613984 1.227967-8.18645 1.63729-15.757892 1.63729-29.879518V529.119913c0.001023-12.688997-0.408299-19.851117-1.636267-29.879518z" p-id="8872"></path></svg>