<?xml version="1.0" standalone="no"?><!DOCTYPE svg PUBLIC "-//W3C//DTD SVG 1.1//EN" "http://www.w3.org/Graphics/SVG/1.1/DTD/svg11.dtd"><svg t="1559200487283" class="icon" style="" viewBox="0 0 1028 1024" version="1.1" xmlns="http://www.w3.org/2000/svg" p-id="3693" xmlns:xlink="http://www.w3.org/1999/xlink" width="15.05859375" height="15"><defs><style type="text/css"></style></defs><path d="M59.892 939.698c-19.371 0-51.873-9.162-51.873-70.51V153.753c0.05-2.792 2.13-71.92 76.135-71.92h312.28l1.058-0.226h-0.002c0.017 0 1.46-0.244 3.857-0.244 8.92 0 31.959 3.47 53.212 35.615 29.623 44.827 46.455 69.817 46.62 70.066l0.408 0.6 0.485 0.541c0.59 0.653 14.758 16.02 42.108 16.017l1.618-0.018-0.005-0.062c2 0.169 4.09 0.178 6.11 0.188 4.69 0.026 11.515 0.043 20.083 0.058 17.108 0.03 41.17 0.04 68.973 0.04 120.26 0 310.483-0.222 310.483-0.222h0.518l0.518-0.053c0.176-0.017 1.493-0.123 3.579-0.123 20.605 0 55.167 7.75 55.167 59.658V900.89l0.216 1.04c0.076 0.408 2.211 12.344-6 22.25-8.173 9.855-24.647 15.067-47.64 15.067H66.185l-0.828 0.136c0-0.002-2.123 0.315-5.465 0.315z m96.8-805.482c-94.525 0-96.707 91.46-96.72 92.383v569.263c0 34.913 9.485 60.45 28.19 75.904 16.006 13.223 34.61 15.198 44.274 15.198 3.674 0 6.443-0.276 7.833-0.452h745.153c24.5 0 43.518-7.554 56.524-22.455 21.013-24.063 18.143-58.76 17.495-64.525V336.044c0-59.166-39.136-80.246-75.758-80.246a66.2 66.2 0 0 0-5.075 0.176c-9.886 0.012-184.534 0.22-295.84 0.22-71.384 0-88.731-0.084-90.665-0.158v-0.06l-1.174 0.012c-15.901 0-24.586-7.147-26.508-8.935-3.055-4.446-19.301-28.165-45.932-68.458-26.761-40.48-58.123-44.85-70.362-44.85-3.126 0-5.486 0.261-6.863 0.47H156.693z m444.173 609.981c-8.564 0-16.615-3.377-22.677-9.503-12.524-12.664-12.609-33.2-0.246-45.945l104.127-90.9H284.095c-14.836 0-32.16-7.051-32.16-26.919 0-19.143 16.613-25.963 32.16-25.963H682.08l-104.138-90.87c-12.354-12.766-12.273-33.312 0.246-45.973 6.062-6.131 14.113-9.506 22.677-9.506 8.57 0 16.63 3.377 22.701 9.511l124.955 113.956c11.302 11.509 17.525 26.827 17.525 43.15 0 16.399-6.287 31.783-17.7 43.312L623.562 734.694c-6.066 6.126-14.128 9.503-22.697 9.503z" fill="" p-id="3694"></path></svg>