<?xml version="1.0" standalone="no"?><!DOCTYPE svg PUBLIC "-//W3C//DTD SVG 1.1//EN" "http://www.w3.org/Graphics/SVG/1.1/DTD/svg11.dtd"><svg t="1558929456488" class="icon" style="" viewBox="0 0 1024 1024" version="1.1" xmlns="http://www.w3.org/2000/svg" p-id="5143" xmlns:xlink="http://www.w3.org/1999/xlink" width="18" height="18"><defs><style type="text/css"></style></defs><path d="M858.144 368.256l1.12-6.176-225.152-231.808-51.008 0c-6.272 0-12.416 0-18.848 0-3.232 0-6.496 0-9.76 0-133.472 0-273.632 0-273.632 0-40.288 0-72.96 31.232-72.96 69.76L207.904 862.72c0 38.528 32.672 69.76 72.96 69.76l510.752 0c40.288 0 72.96-31.232 72.96-69.76L864.576 426.752l0-44.544 0-7.744L858.144 368.256zM645.728 194.144l159.712 162.848-123.232 0c-20.16 0-36.48-15.616-36.48-34.88L645.728 194.144zM828.128 862.72c0 19.264-16.32 34.88-36.48 34.88L280.896 897.6c-20.16 0-36.48-15.616-36.48-34.88L244.416 200.032c0-19.264 16.32-34.88 36.48-34.88l328.352 0 0 156.96c0 38.528 32.672 69.76 72.96 69.76l145.92 0L828.128 862.72zM560.448 426.624c-40.512 0-71.296 17.6-92.384 52.736l-0.96 0 0-46.432-47.648 0 0 392.576 47.648 0 0-161.664 0.96 0c18.784 29.504 45.44 44.256 79.968 44.256 37.44 0 67.2-13.568 89.344-40.704 22.112-27.136 33.184-63.072 33.184-107.808 0-40.512-9.76-72.8-29.28-96.864C621.728 438.656 594.784 426.624 560.448 426.624zM600.32 639.552c-14.272 19.456-34.016 29.152-59.296 29.152-21.248 0-38.88-7.488-52.992-22.496-14.112-14.976-21.152-33.408-21.152-55.296L466.88 555.2c0-26.08 7.52-47.488 22.592-64.16 15.072-16.704 34.368-25.024 57.856-25.024 23.008 0 41.152 8.224 54.432 24.672 13.28 16.448 19.936 39.168 19.936 68.192C621.696 593.216 614.56 620.096 600.32 639.552z" p-id="5144"></path></svg>