<?xml version="1.0" standalone="no"?><!DOCTYPE svg PUBLIC "-//W3C//DTD SVG 1.1//EN" "http://www.w3.org/Graphics/SVG/1.1/DTD/svg11.dtd"><svg t="1546499672834" class="icon" style="" viewBox="0 0 1024 1024" version="1.1" xmlns="http://www.w3.org/2000/svg" p-id="2103" xmlns:xlink="http://www.w3.org/1999/xlink" width="15" height="15"><defs><style type="text/css"></style></defs><path d="M883.037091 512.651636l23.272727 0c-18.781091 0-23.272727 4.352-23.272727 23.272727l0 325.818182c-1.792 5.445818 1.466182 21.899636 0 23.272727l-744.727273 0c-6.144-5.026909 0.162909-0.721455 0 0l0-721.454545c0-6.306909 3.351273-24.552727 9.588364-24.552727l362.775273 1.28c18.781091 0 24.133818-21.922909 23.272727-23.272727-1.303273-2.024727-0.116364-31.022545-23.272727-23.272727L171.170909 93.742545c-43.776 0-79.406545 35.886545-79.406545 79.965091l0 677.864727c0 44.101818 35.630545 79.965091 79.406545 79.965091L848.058182 931.537455c43.776 0 81.524364-25.716364 81.524364-69.818182l0-325.818182C937.588364 506.833455 901.841455 512.651636 883.037091 512.651636zM650.309818 140.288l209.454545 0c-122.903273 127.464727-289.652364 278.807273-412.532364 406.272-30.347636 31.488 9.774545 67.444364 40.168727 35.909818 122.344727-126.882909 273.291636-268.753455 395.636364-395.636364l0 209.454545c2.909091 31.534545 49.687273 30.557091 46.545455 0L929.582545 130.117818c0-10.565818 5.957818-7.633455 0-13.102545 3.072-6.586182-13.405091-22.621091-23.272727-23.272727-3.281455-0.209455-19.944727-0.488727-23.272727 0l-232.727273 0C620.194909 93.602909 618.216727 140.171636 650.309818 140.288z" p-id="2104"></path></svg>