<?xml version="1.0" standalone="no"?><!DOCTYPE svg PUBLIC "-//W3C//DTD SVG 1.1//EN" "http://www.w3.org/Graphics/SVG/1.1/DTD/svg11.dtd"><svg t="1558925233150" class="icon" style="" viewBox="0 0 1024 1024" version="1.1" xmlns="http://www.w3.org/2000/svg" p-id="13487" xmlns:xlink="http://www.w3.org/1999/xlink" width="18" height="18"><defs><style type="text/css"></style></defs><path d="M821.816 962.01H202.208c-57.601 0-104.456-46.855-104.456-104.443V164.449c0-57.6 46.855-104.455 104.456-104.455H678.26c15.042 0 27.237 12.195 27.237 27.238 0 15.041-12.195 27.236-27.237 27.236H202.208c-27.558 0-49.979 22.424-49.979 49.98v693.117c0 27.557 22.422 49.967 49.979 49.967h619.608c27.545 0 49.955-22.41 49.955-49.967V287.02c0-15.041 12.195-27.238 27.237-27.238s27.237 12.197 27.237 27.238v570.547c0.001 57.587-46.841 104.443-104.429 104.443z" fill="" p-id="13488"></path><path d="M500.734 447.549H318.979c-15.042 0-27.237-12.197-27.237-27.238s12.195-27.238 27.237-27.238h181.755c15.041 0 27.238 12.197 27.238 27.238s-12.197 27.238-27.238 27.238zM705.019 610.775h-386.04c-15.042 0-27.237-12.195-27.237-27.236 0-15.043 12.195-27.238 27.237-27.238h386.039c15.042 0 27.237 12.195 27.237 27.238 0.001 15.041-12.194 27.236-27.236 27.236zM705.019 765.119h-386.04c-15.042 0-27.237-12.195-27.237-27.236 0-15.043 12.195-27.238 27.237-27.238h386.039c15.042 0 27.237 12.195 27.237 27.238 0.001 15.041-12.194 27.236-27.236 27.236zM899.009 314.258H678.26c-15.043 0-27.238-12.195-27.238-27.238V87.232a27.23 27.23 0 0 1 16.186-24.898c9.828-4.361 21.333-2.541 29.326 4.709l220.75 199.787c8.352 7.557 11.197 19.473 7.142 29.979a27.222 27.222 0 0 1-25.417 17.449z m-193.512-54.477H828.32L705.497 148.623v111.158z" fill="" p-id="13489"></path></svg>