<?xml version="1.0" standalone="no"?><!DOCTYPE svg PUBLIC "-//W3C//DTD SVG 1.1//EN" "http://www.w3.org/Graphics/SVG/1.1/DTD/svg11.dtd"><svg t="1558929416347" class="icon" style="" viewBox="0 0 1024 1024" version="1.1" xmlns="http://www.w3.org/2000/svg" p-id="9154" xmlns:xlink="http://www.w3.org/1999/xlink" width="18" height="18"><defs><style type="text/css"></style></defs><path d="M797.473 1023.498H226.526c-35.095 0-68.237-11.66-93.322-32.833-26.06-21.995-40.412-51.53-40.412-83.163V116.499c0-31.633 14.352-61.167 40.412-83.163C158.289 12.163 191.432 0.503 226.526 0.503h407.887l296.794 260.954v646.045c0 31.633-14.352 61.168-40.412 83.163-25.085 21.173-58.228 32.833-93.322 32.833zM226.526 40.502c-51.686 0-93.734 34.092-93.734 75.996v791.003c0 41.904 42.049 75.996 93.734 75.996h570.946c51.686 0 93.734-34.092 93.734-75.996V279.549L619.329 40.502H226.526z" fill="" p-id="9155"></path><path d="M885.906 297.547h-0.078l-133.034-0.508h-70.632c-46.792 0-84.86-39.282-84.86-87.565V31.214c0-11.046 8.954-20 20-20s20 8.954 20 20v178.26c0 26.228 20.124 47.565 44.86 47.565h70.708l133.11 0.508c11.046 0.042 19.966 9.031 19.924 20.076-0.042 11.02-8.989 19.924-19.998 19.924z" fill="" p-id="9156"></path><path d="M373.955 774.603l-109.827-358.88h62.855l57.11 207.15 21.29 77.048c0.897-3.828 7.096-28.497 18.586-74.007l57.11-210.191h62.517l53.73 208.164 17.91 68.6 20.613-69.275 61.502-207.488h59.139l-112.193 358.88h-63.191l-57.11-214.924-13.856-61.165-72.654 276.087h-63.531z" fill="" p-id="9157"></path></svg>