<?xml version="1.0" standalone="no"?><!DOCTYPE svg PUBLIC "-//W3C//DTD SVG 1.1//EN" "http://www.w3.org/Graphics/SVG/1.1/DTD/svg11.dtd"><svg t="1558929849125" class="icon" style="" viewBox="0 0 1024 1024" version="1.1" xmlns="http://www.w3.org/2000/svg" p-id="13736" xmlns:xlink="http://www.w3.org/1999/xlink" width="18" height="18"><defs><style type="text/css"></style></defs><path d="M323.584 323.584h89.6v57.856h-89.6zM419.328 387.584h89.6v57.856h-89.6zM323.584 196.096h89.6v57.856h-89.6zM323.584 451.072h89.6v57.856h-89.6zM419.328 260.096h89.6v57.856h-89.6z" p-id="13737"></path><path d="M757.248 60.416c-30.72-30.72-90.624-55.296-134.144-55.296h-477.696c-42.496 0-76.8 34.304-76.8 76.8v860.16c0 42.496 34.304 76.8 76.8 76.8H878.592c42.496 0 76.8-34.304 76.8-76.8V336.896c0-43.008-25.088-103.424-55.296-134.144l-5.12-5.12-137.728-137.216z m-56.832 28.16l4.608 3.072c4.608 3.072 8.704 6.656 11.776 9.728l142.336 142.336c3.072 3.072 6.144 7.168 9.728 11.776l3.072 4.608h-171.008v-171.52z m194.56 229.376l0.512 2.56c1.024 6.144 1.536 11.776 1.536 16.384v605.184c0 10.24-8.704 18.944-18.944 18.944h-732.672c-10.24 0-18.944-8.704-18.944-18.944v-860.16c0-10.24 8.704-18.944 18.944-18.944h477.696c4.608 0 10.24 0.512 16.384 1.536l2.56 0.512v252.928h252.928z" p-id="13738"></path><path d="M419.328 132.608h89.6v57.856h-89.6zM323.584 578.56v220.16c0 15.872 12.8 29.184 29.184 29.184h127.488c15.872 0 29.184-12.8 29.184-29.184v-283.648H419.84v63.488h-96.256z m159.744 121.856v69.632h-133.12V700.416h133.12z" p-id="13739"></path></svg>